<svg width="463.8000122070312px" height="124.439990234375px" xmlns="http://www.w3.org/2000/svg" viewBox="18.099993896484392 12.780004882812499 463.8000122070312 124.439990234375" style="background:#596886" preserveAspectRatio="xMidYMid"><defs><filter id="editing-hover" x="-100%" y="-100%" width="300%" height="300%"><feFlood flood-color="#052b4a" result="flood"></feFlood><feComposite operator="in" in2="SourceAlpha" in="flood" result="shadow"></feComposite><feOffset dx="-4" dy="-4" in="SourceGraphic" result="offset-1"></feOffset><feOffset dx="4" dy="4" in="shadow" result="offset-2"></feOffset><feMerge><feMergeNode in="offset-2"></feMergeNode><feMergeNode in="offset-1"></feMergeNode></feMerge></filter></defs><g filter="url(#editing-hover)"><g transform="translate(88.40037536621094, 98.6796875)"><path d="M48.83-10.69L48.83-10.69Q44.61-4.86 40.54-1.79L40.54-1.79L40.54-1.79Q36.48 1.28 32.29 1.28L32.29 1.28L32.29 1.28Q28.10 1.28 26.62 0.45L26.62 0.45L26.62-13.63L26.62-13.63Q22.98-3.90 16.45-0.13L16.45-0.13L16.45-0.13Q14.08 1.28 11.84 1.28L11.84 1.28L11.84 1.28Q7.55 1.28 5.70 0.45L5.70 0.45L5.70 0.45Q5.25-14.21 4.86-18.27L4.86-18.27L4.86-18.27Q4.48-22.34 4.16-24.83L4.16-24.83L4.16-24.83Q3.52-29.82 1.34-31.87L1.34-31.87L1.34-31.87Q4.10-33.92 7.94-33.92L7.94-33.92L7.94-33.92Q15.36-33.92 16.38-24.70L16.38-24.70L16.38-24.70Q16.64-22.53 16.64-20.22L16.64-20.22L16.64-20.22Q16.64-16.77 15.87-4.74L15.87-4.74L15.87-4.74Q17.41-5.44 19.04-7.97L19.04-7.97L19.04-7.97Q20.67-10.50 22.02-13.95L22.02-13.95L22.02-13.95Q25.02-21.95 25.02-28.86L25.02-28.86L25.02-28.86Q25.02-29.95 24.74-31.10L24.74-31.10L24.74-31.10Q24.45-32.26 24.13-32.58L24.13-32.58L24.13-32.58Q26.37-33.92 29.79-33.92L29.79-33.92L29.79-33.92Q33.22-33.92 34.85-31.58L34.85-31.58L34.85-31.58Q36.48-29.25 36.93-24.96L36.93-24.96L36.93-24.96Q37.44-19.52 37.44-16.26L37.44-16.26L37.44-16.26Q37.44-11.71 36.99-4.99L36.99-4.99L36.99-4.99Q40.19-7.30 42.82-14.85L42.82-14.85L42.82-14.85Q45.44-22.40 45.44-27.78L45.44-27.78L45.44-27.78Q45.44-30.14 45.06-31.55L45.06-31.55L45.06-31.55Q47.17-33.92 50.82-33.92L50.82-33.92L50.82-33.92Q53.06-33.92 54.69-32.70L54.69-32.70L54.69-32.70Q56.32-31.49 56.32-29.22L56.32-29.22L56.32-29.22Q56.32-26.94 55.65-24.51L55.65-24.51L55.65-24.51Q54.98-22.08 53.89-19.58L53.89-19.58L53.89-19.58Q51.78-14.59 48.83-10.69L48.83-10.69ZM90.24-7.10L90.24-7.10L90.24-7.10Q90.24-4.29 93.12-3.46L93.12-3.46L93.12-3.46Q92.42-1.09 89.66 0.19L89.66 0.19L89.66 0.19Q87.36 1.28 84.83 1.28L84.83 1.28L84.83 1.28Q82.30 1.28 80.99 0.61L80.99 0.61L80.99 0.61Q79.68-0.06 78.98-1.15L78.98-1.15L78.98-1.15Q77.82-2.82 77.82-5.95L77.82-5.95L77.82-5.95Q77.82-7.81 78.85-12.93L78.85-12.93L79.74-17.79L79.74-17.79Q80.83-23.36 80.83-25.41L80.83-25.41L80.83-25.41Q80.83-28.99 78.85-28.99L78.85-28.99L78.85-28.99Q76.35-28.99 74.75-25.34L74.75-25.34L74.75-25.34Q74.11-23.94 73.66-21.82L73.66-21.82L69.31 0L56.45 1.28L65.47-44.80L78.34-46.08L77.82-43.52L77.82-43.52Q76.03-33.66 74.50-30.34L74.50-30.34L74.50-30.34Q78.08-33.92 84.67-33.92L84.67-33.92L84.67-33.92Q91.65-33.92 92.93-29.31L92.93-29.31L92.93-29.31Q93.38-27.84 93.38-26.56L93.38-26.56L93.38-26.56Q93.38-25.28 93.28-24.29L93.28-24.29L93.28-24.29Q93.18-23.30 92.86-21.50L92.86-21.50L92.03-16.90L90.56-9.66L90.56-9.66Q90.24-8.19 90.24-7.10ZM112.26 1.28L112.26 1.28L112.26 1.28Q98.18 1.28 98.18-11.97L98.18-11.97L98.18-11.97Q98.18-21.38 103.36-27.46L103.36-27.46L103.36-27.46Q108.86-33.92 118.40-33.92L118.40-33.92L118.40-33.92Q125.31-33.92 128.83-30.72L128.83-30.72L128.83-30.72Q132.35-27.52 132.35-20.80L132.35-20.80L132.35-20.80Q132.35-10.56 126.85-4.61L126.85-4.61L126.85-4.61Q121.47 1.28 112.26 1.28ZM113.92-26.56L113.92-26.56L113.92-26.56Q113.15-24.83 112.54-22.24L112.54-22.24L112.54-22.24Q111.94-19.65 111.17-15.55L111.17-15.55L111.17-15.55Q110.40-11.46 110.40-6.40L110.40-6.40L110.40-6.40Q110.40-4.74 110.94-3.65L110.94-3.65L110.94-3.65Q111.49-2.56 112.96-2.56L112.96-2.56L112.96-2.56Q114.43-2.56 115.36-3.26L115.36-3.26L115.36-3.26Q116.29-3.97 116.99-5.63L116.99-5.63L116.99-5.63Q118.27-8.58 119.30-14.05L119.30-14.05L119.30-14.05Q120.32-19.52 120.42-21.89L120.42-21.89L120.42-21.89Q120.51-24.26 120.51-26.02L120.51-26.02L120.51-26.02Q120.51-27.78 120-28.93L120-28.93L120-28.93Q119.49-30.08 118.05-30.08L118.05-30.08L118.05-30.08Q116.61-30.08 115.65-29.18L115.65-29.18L115.65-29.18Q114.69-28.29 113.92-26.56ZM149.38 0L135.42 0L143.55-42.24L157.63-42.24L149.38 0ZM178.18-22.46L178.18-22.46L178.18-22.46Q179.07-24.83 179.07-26.88L179.07-26.88L179.07-26.88Q179.07-30.66 176.00-30.66L176.00-30.66L176.00-30.66Q174.40-30.66 173.09-29.22L173.09-29.22L173.09-29.22Q171.78-27.78 171.78-25.98L171.78-25.98L171.78-25.98Q171.78-24.70 172.80-23.68L172.80-23.68L172.80-23.68Q174.27-22.27 178.05-19.97L178.05-19.97L178.05-19.97Q181.82-17.66 183.26-15.78L183.26-15.78L183.26-15.78Q184.70-13.89 184.70-11.30L184.70-11.30L184.70-11.30Q184.70-8.70 183.46-6.34L183.46-6.34L183.46-6.34Q182.21-3.97 179.97-2.30L179.97-2.30L179.97-2.30Q175.17 1.28 167.49 1.28L167.49 1.28L167.49 1.28Q163.33 1.28 160.13-0.90L160.13-0.90L160.13-0.90Q156.93-3.01 156.93-5.50L156.93-5.50L156.93-5.50Q156.93-8 158.75-9.47L158.75-9.47L158.75-9.47Q160.58-10.94 163.26-10.94L163.26-10.94L163.26-10.94Q165.95-10.94 167.62-9.92L167.62-9.92L167.62-9.92Q166.78-7.81 166.78-6.40L166.78-6.40L166.78-6.40Q166.78-2.18 170.37-2.18L170.37-2.18L170.37-2.18Q171.90-2.18 172.93-3.14L172.93-3.14L172.93-3.14Q173.95-4.10 173.95-5.76L173.95-5.76L173.95-5.76Q173.95-9.02 168.45-12.48L168.45-12.48L168.45-12.48Q163.97-15.42 162.94-16.58L162.94-16.58L162.94-16.58Q161.22-18.62 161.22-21.18L161.22-21.18L161.22-21.18Q161.22-23.74 162.43-26.18L162.43-26.18L162.43-26.18Q163.65-28.61 165.89-30.34L165.89-30.34L165.89-30.34Q170.56-33.92 178.69-33.92L178.69-33.92L178.69-33.92Q182.85-33.92 185.31-32.26L185.31-32.26L185.31-32.26Q187.78-30.59 187.78-27.78L187.78-27.78L187.78-27.78Q187.78-24.96 186.08-23.36L186.08-23.36L186.08-23.36Q184.38-21.76 181.31-21.76L181.31-21.76L181.31-21.76Q179.20-21.76 178.18-22.46ZM189.50-0.32L189.50-0.32L197.57-42.24L197.57-42.24Q205.12-42.88 209.98-42.88L209.98-42.88L209.98-42.88Q214.85-42.88 217.98-42.46L217.98-42.46L217.98-42.46Q221.12-42.05 223.23-40.96L223.23-40.96L223.23-40.96Q227.46-38.91 227.46-33.28L227.46-33.28L227.46-33.28Q227.46-30.02 224.64-27.26L224.64-27.26L224.64-27.26Q222.02-24.77 219.14-24.19L219.14-24.19L219.14-24.19Q222.21-23.68 224.38-21.38L224.38-21.38L224.38-21.38Q226.69-18.94 226.69-15.17L226.69-15.17L226.69-15.17Q226.69-7.87 221.25-3.62L221.25-3.62L221.25-3.62Q215.81 0.64 205.12 0.64L205.12 0.64L205.12 0.64Q197.76 0.64 189.50-0.32ZM206.91-20.61L203.71-4.03L203.71-4.03Q204.29-3.97 204.42-3.97L204.42-3.97L204.99-3.97L204.99-3.97Q210.24-3.97 212.48-7.42L212.48-7.42L212.48-7.42Q214.14-10.11 214.14-15.04L214.14-15.04L214.14-15.04Q214.14-17.66 212.45-19.07L212.45-19.07L212.45-19.07Q210.75-20.48 206.91-20.61L206.91-20.61ZM216.64-33.22L216.64-33.22L216.64-33.22Q216.64-38.53 211.52-38.53L211.52-38.53L210.94-38.53L210.94-38.53Q210.69-38.53 210.30-38.46L210.30-38.46L207.74-24.96L208.38-24.96L208.38-24.96Q216.64-25.15 216.64-33.22ZM256.83-10.82L256.83-10.82L256.83-10.82Q258.43-9.73 258.43-7.33L258.43-7.33L258.43-7.33Q258.43-4.93 257.22-3.39L257.22-3.39L257.22-3.39Q256.00-1.86 254.02-0.83L254.02-0.83L254.02-0.83Q249.92 1.28 245.50 1.28L245.50 1.28L245.50 1.28Q241.09 1.28 238.50 0.32L238.50 0.32L238.50 0.32Q235.90-0.64 234.18-2.43L234.18-2.43L234.18-2.43Q230.78-5.82 230.78-12.03L230.78-12.03L230.78-12.03Q230.78-21.70 236.03-27.58L236.03-27.58L236.03-27.58Q241.66-33.92 251.46-33.92L251.46-33.92L251.46-33.92Q257.54-33.92 260.54-31.36L260.54-31.36L260.54-31.36Q262.78-29.44 262.78-26.30L262.78-26.30L262.78-26.30Q262.78-15.04 243.33-15.04L243.33-15.04L243.33-15.04Q243.07-13.38 243.07-11.97L243.07-11.97L243.07-11.97Q243.07-9.02 244.38-7.90L244.38-7.90L244.38-7.90Q245.70-6.78 248.13-6.78L248.13-6.78L248.13-6.78Q250.56-6.78 253.15-7.90L253.15-7.90L253.15-7.90Q255.74-9.02 256.83-10.82ZM243.78-17.79L243.78-17.79L243.78-17.79Q248.32-17.79 250.94-20.61L250.94-20.61L250.94-20.61Q253.57-23.30 253.57-27.58L253.57-27.58L253.57-27.58Q253.57-29.06 253.02-29.86L253.02-29.86L253.02-29.86Q252.48-30.66 251.39-30.66L251.39-30.66L251.39-30.66Q250.30-30.66 249.38-30.24L249.38-30.24L249.38-30.24Q248.45-29.82 247.49-28.42L247.49-28.42L247.49-28.42Q245.12-25.22 243.78-17.79ZM265.98-6.40L265.98-6.40L265.98-6.40Q265.98-8.13 266.88-12.48L266.88-12.48L270.27-29.76L266.50-29.76L266.75-31.68L266.75-31.68Q274.43-33.98 281.86-39.62L281.86-39.62L284.93-39.62L283.39-32.64L288.38-32.64L287.81-29.76L282.88-29.76L279.62-12.48L279.62-12.48Q278.78-8.51 278.78-7.17L278.78-7.17L278.78-7.17Q278.78-4.10 281.47-3.46L281.47-3.46L281.47-3.46Q280.83-1.28 278.53 0L278.53 0L278.53 0Q276.22 1.28 272.96 1.28L272.96 1.28L272.96 1.28Q269.70 1.28 267.84-0.77L267.84-0.77L267.84-0.77Q265.98-2.82 265.98-6.40ZM301.76 1.28L301.76 1.28L301.76 1.28Q287.68 1.28 287.68-11.97L287.68-11.97L287.68-11.97Q287.68-21.38 292.86-27.46L292.86-27.46L292.86-27.46Q298.37-33.92 307.90-33.92L307.90-33.92L307.90-33.92Q314.82-33.92 318.34-30.72L318.34-30.72L318.34-30.72Q321.86-27.52 321.86-20.80L321.86-20.80L321.86-20.80Q321.86-10.56 316.35-4.61L316.35-4.61L316.35-4.61Q310.98 1.28 301.76 1.28ZM303.42-26.56L303.42-26.56L303.42-26.56Q302.66-24.83 302.05-22.24L302.05-22.24L302.05-22.24Q301.44-19.65 300.67-15.55L300.67-15.55L300.67-15.55Q299.90-11.46 299.90-6.40L299.90-6.40L299.90-6.40Q299.90-4.74 300.45-3.65L300.45-3.65L300.45-3.65Q300.99-2.56 302.46-2.56L302.46-2.56L302.46-2.56Q303.94-2.56 304.86-3.26L304.86-3.26L304.86-3.26Q305.79-3.97 306.50-5.63L306.50-5.63L306.50-5.63Q307.78-8.58 308.80-14.05L308.80-14.05L308.80-14.05Q309.82-19.52 309.92-21.89L309.92-21.89L309.92-21.89Q310.02-24.26 310.02-26.02L310.02-26.02L310.02-26.02Q310.02-27.78 309.50-28.93L309.50-28.93L309.50-28.93Q308.99-30.08 307.55-30.08L307.55-30.08L307.55-30.08Q306.11-30.08 305.15-29.18L305.15-29.18L305.15-29.18Q304.19-28.29 303.42-26.56Z" fill="#ffd5af"></path></g></g><style>text {
  font-size: 64px;
  font-family: Arial Black;
  dominant-baseline: central;
  text-anchor: middle;
}</style></svg>